<mxfile host="app.diagrams.net" modified="2023-06-15T00:24:08.116Z" agent="Mozilla/5.0 (X11; Linux x86_64; rv:109.0) Gecko/20100101 Firefox/114.0" etag="h72eQo6A67BXXTEQqupX" version="21.3.8" type="device">
  <diagram id="C5RBs43oDa-KdzZeNtuy" name="Page-1">
    <mxGraphModel dx="1395" dy="632" grid="1" gridSize="10" guides="1" tooltips="1" connect="1" arrows="1" fold="1" page="1" pageScale="1" pageWidth="827" pageHeight="1169" math="0" shadow="0">
      <root>
        <mxCell id="WIyWlLk6GJQsqaUBKTNV-0" />
        <mxCell id="WIyWlLk6GJQsqaUBKTNV-1" parent="WIyWlLk6GJQsqaUBKTNV-0" />
        <mxCell id="0I3qsg0Ha3ZCSfRr8cA--64" style="edgeStyle=orthogonalEdgeStyle;rounded=0;orthogonalLoop=1;jettySize=auto;html=1;" parent="WIyWlLk6GJQsqaUBKTNV-1" source="0I3qsg0Ha3ZCSfRr8cA--6" target="0I3qsg0Ha3ZCSfRr8cA--58" edge="1">
          <mxGeometry relative="1" as="geometry">
            <Array as="points">
              <mxPoint x="595" y="730" />
            </Array>
          </mxGeometry>
        </mxCell>
        <mxCell id="osclPZG7CTdRH2gxLN_U-0" style="edgeStyle=orthogonalEdgeStyle;rounded=0;orthogonalLoop=1;jettySize=auto;html=1;" edge="1" parent="WIyWlLk6GJQsqaUBKTNV-1" source="0I3qsg0Ha3ZCSfRr8cA--6" target="0I3qsg0Ha3ZCSfRr8cA--45">
          <mxGeometry relative="1" as="geometry" />
        </mxCell>
        <mxCell id="0I3qsg0Ha3ZCSfRr8cA--6" value="Sauces" style="swimlane;fontStyle=2;align=center;verticalAlign=top;childLayout=stackLayout;horizontal=1;startSize=26;horizontalStack=0;resizeParent=1;resizeLast=0;collapsible=1;marginBottom=0;rounded=0;shadow=0;strokeWidth=1;" parent="WIyWlLk6GJQsqaUBKTNV-1" vertex="1">
          <mxGeometry x="580" y="635" width="90" height="160" as="geometry">
            <mxRectangle x="220" y="120" width="160" height="26" as="alternateBounds" />
          </mxGeometry>
        </mxCell>
        <mxCell id="0I3qsg0Ha3ZCSfRr8cA--7" value="name" style="text;align=left;verticalAlign=top;spacingLeft=4;spacingRight=4;overflow=hidden;rotatable=0;points=[[0,0.5],[1,0.5]];portConstraint=eastwest;" parent="0I3qsg0Ha3ZCSfRr8cA--6" vertex="1">
          <mxGeometry y="26" width="90" height="26" as="geometry" />
        </mxCell>
        <mxCell id="0I3qsg0Ha3ZCSfRr8cA--8" value="ingredients" style="text;align=left;verticalAlign=top;spacingLeft=4;spacingRight=4;overflow=hidden;rotatable=0;points=[[0,0.5],[1,0.5]];portConstraint=eastwest;rounded=0;shadow=0;html=0;" parent="0I3qsg0Ha3ZCSfRr8cA--6" vertex="1">
          <mxGeometry y="52" width="90" height="26" as="geometry" />
        </mxCell>
        <mxCell id="0I3qsg0Ha3ZCSfRr8cA--9" value="price" style="text;align=left;verticalAlign=top;spacingLeft=4;spacingRight=4;overflow=hidden;rotatable=0;points=[[0,0.5],[1,0.5]];portConstraint=eastwest;rounded=0;shadow=0;html=0;" parent="0I3qsg0Ha3ZCSfRr8cA--6" vertex="1">
          <mxGeometry y="78" width="90" height="26" as="geometry" />
        </mxCell>
        <mxCell id="0I3qsg0Ha3ZCSfRr8cA--18" value="quantity" style="text;align=left;verticalAlign=top;spacingLeft=4;spacingRight=4;overflow=hidden;rotatable=0;points=[[0,0.5],[1,0.5]];portConstraint=eastwest;rounded=0;shadow=0;html=0;" parent="0I3qsg0Ha3ZCSfRr8cA--6" vertex="1">
          <mxGeometry y="104" width="90" height="26" as="geometry" />
        </mxCell>
        <mxCell id="0I3qsg0Ha3ZCSfRr8cA--20" value="isSpicy" style="text;align=left;verticalAlign=top;spacingLeft=4;spacingRight=4;overflow=hidden;rotatable=0;points=[[0,0.5],[1,0.5]];portConstraint=eastwest;rounded=0;shadow=0;html=0;" parent="0I3qsg0Ha3ZCSfRr8cA--6" vertex="1">
          <mxGeometry y="130" width="90" height="26" as="geometry" />
        </mxCell>
        <mxCell id="0I3qsg0Ha3ZCSfRr8cA--51" style="edgeStyle=orthogonalEdgeStyle;rounded=0;orthogonalLoop=1;jettySize=auto;html=1;" parent="WIyWlLk6GJQsqaUBKTNV-1" source="0I3qsg0Ha3ZCSfRr8cA--12" target="0I3qsg0Ha3ZCSfRr8cA--45" edge="1">
          <mxGeometry relative="1" as="geometry" />
        </mxCell>
        <mxCell id="0I3qsg0Ha3ZCSfRr8cA--63" style="edgeStyle=orthogonalEdgeStyle;rounded=0;orthogonalLoop=1;jettySize=auto;html=1;" parent="WIyWlLk6GJQsqaUBKTNV-1" source="0I3qsg0Ha3ZCSfRr8cA--12" target="0I3qsg0Ha3ZCSfRr8cA--58" edge="1">
          <mxGeometry relative="1" as="geometry" />
        </mxCell>
        <mxCell id="0I3qsg0Ha3ZCSfRr8cA--12" value="Food" style="swimlane;fontStyle=2;align=center;verticalAlign=top;childLayout=stackLayout;horizontal=1;startSize=26;horizontalStack=0;resizeParent=1;resizeLast=0;collapsible=1;marginBottom=0;rounded=0;shadow=0;strokeWidth=1;" parent="WIyWlLk6GJQsqaUBKTNV-1" vertex="1">
          <mxGeometry x="370" y="820" width="100" height="120" as="geometry">
            <mxRectangle x="220" y="120" width="160" height="26" as="alternateBounds" />
          </mxGeometry>
        </mxCell>
        <mxCell id="0I3qsg0Ha3ZCSfRr8cA--14" value="ingredients" style="text;align=left;verticalAlign=top;spacingLeft=4;spacingRight=4;overflow=hidden;rotatable=0;points=[[0,0.5],[1,0.5]];portConstraint=eastwest;rounded=0;shadow=0;html=0;" parent="0I3qsg0Ha3ZCSfRr8cA--12" vertex="1">
          <mxGeometry y="26" width="100" height="26" as="geometry" />
        </mxCell>
        <mxCell id="0I3qsg0Ha3ZCSfRr8cA--13" value="name" style="text;align=left;verticalAlign=top;spacingLeft=4;spacingRight=4;overflow=hidden;rotatable=0;points=[[0,0.5],[1,0.5]];portConstraint=eastwest;" parent="0I3qsg0Ha3ZCSfRr8cA--12" vertex="1">
          <mxGeometry y="52" width="100" height="26" as="geometry" />
        </mxCell>
        <mxCell id="0I3qsg0Ha3ZCSfRr8cA--15" value="price" style="text;align=left;verticalAlign=top;spacingLeft=4;spacingRight=4;overflow=hidden;rotatable=0;points=[[0,0.5],[1,0.5]];portConstraint=eastwest;rounded=0;shadow=0;html=0;" parent="0I3qsg0Ha3ZCSfRr8cA--12" vertex="1">
          <mxGeometry y="78" width="100" height="26" as="geometry" />
        </mxCell>
        <mxCell id="0I3qsg0Ha3ZCSfRr8cA--41" style="edgeStyle=orthogonalEdgeStyle;rounded=0;orthogonalLoop=1;jettySize=auto;html=1;exitX=0.5;exitY=0;exitDx=0;exitDy=0;" parent="WIyWlLk6GJQsqaUBKTNV-1" source="0I3qsg0Ha3ZCSfRr8cA--22" target="0I3qsg0Ha3ZCSfRr8cA--12" edge="1">
          <mxGeometry relative="1" as="geometry">
            <Array as="points">
              <mxPoint x="300" y="980" />
              <mxPoint x="420" y="980" />
            </Array>
          </mxGeometry>
        </mxCell>
        <mxCell id="0I3qsg0Ha3ZCSfRr8cA--22" value="Burrito" style="swimlane;fontStyle=2;align=center;verticalAlign=top;childLayout=stackLayout;horizontal=1;startSize=26;horizontalStack=0;resizeParent=1;resizeLast=0;collapsible=1;marginBottom=0;rounded=0;shadow=0;strokeWidth=1;" parent="WIyWlLk6GJQsqaUBKTNV-1" vertex="1">
          <mxGeometry x="250" y="1009" width="100" height="138" as="geometry">
            <mxRectangle x="220" y="120" width="160" height="26" as="alternateBounds" />
          </mxGeometry>
        </mxCell>
        <mxCell id="0I3qsg0Ha3ZCSfRr8cA--23" value="name" style="text;align=left;verticalAlign=top;spacingLeft=4;spacingRight=4;overflow=hidden;rotatable=0;points=[[0,0.5],[1,0.5]];portConstraint=eastwest;" parent="0I3qsg0Ha3ZCSfRr8cA--22" vertex="1">
          <mxGeometry y="26" width="100" height="26" as="geometry" />
        </mxCell>
        <mxCell id="0I3qsg0Ha3ZCSfRr8cA--24" value="ingredients" style="text;align=left;verticalAlign=top;spacingLeft=4;spacingRight=4;overflow=hidden;rotatable=0;points=[[0,0.5],[1,0.5]];portConstraint=eastwest;rounded=0;shadow=0;html=0;" parent="0I3qsg0Ha3ZCSfRr8cA--22" vertex="1">
          <mxGeometry y="52" width="100" height="26" as="geometry" />
        </mxCell>
        <mxCell id="0I3qsg0Ha3ZCSfRr8cA--25" value="price" style="text;align=left;verticalAlign=top;spacingLeft=4;spacingRight=4;overflow=hidden;rotatable=0;points=[[0,0.5],[1,0.5]];portConstraint=eastwest;rounded=0;shadow=0;html=0;" parent="0I3qsg0Ha3ZCSfRr8cA--22" vertex="1">
          <mxGeometry y="78" width="100" height="26" as="geometry" />
        </mxCell>
        <mxCell id="0I3qsg0Ha3ZCSfRr8cA--43" style="edgeStyle=orthogonalEdgeStyle;rounded=0;orthogonalLoop=1;jettySize=auto;html=1;" parent="WIyWlLk6GJQsqaUBKTNV-1" source="0I3qsg0Ha3ZCSfRr8cA--26" target="0I3qsg0Ha3ZCSfRr8cA--12" edge="1">
          <mxGeometry relative="1" as="geometry">
            <mxPoint x="414" y="970" as="targetPoint" />
            <Array as="points">
              <mxPoint x="420" y="1000" />
              <mxPoint x="420" y="1000" />
            </Array>
          </mxGeometry>
        </mxCell>
        <mxCell id="0I3qsg0Ha3ZCSfRr8cA--26" value="Taco" style="swimlane;fontStyle=2;align=center;verticalAlign=top;childLayout=stackLayout;horizontal=1;startSize=26;horizontalStack=0;resizeParent=1;resizeLast=0;collapsible=1;marginBottom=0;rounded=0;shadow=0;strokeWidth=1;" parent="WIyWlLk6GJQsqaUBKTNV-1" vertex="1">
          <mxGeometry x="364" y="1009" width="100" height="138" as="geometry">
            <mxRectangle x="220" y="120" width="160" height="26" as="alternateBounds" />
          </mxGeometry>
        </mxCell>
        <mxCell id="0I3qsg0Ha3ZCSfRr8cA--27" value="name" style="text;align=left;verticalAlign=top;spacingLeft=4;spacingRight=4;overflow=hidden;rotatable=0;points=[[0,0.5],[1,0.5]];portConstraint=eastwest;" parent="0I3qsg0Ha3ZCSfRr8cA--26" vertex="1">
          <mxGeometry y="26" width="100" height="26" as="geometry" />
        </mxCell>
        <mxCell id="0I3qsg0Ha3ZCSfRr8cA--28" value="ingredients" style="text;align=left;verticalAlign=top;spacingLeft=4;spacingRight=4;overflow=hidden;rotatable=0;points=[[0,0.5],[1,0.5]];portConstraint=eastwest;rounded=0;shadow=0;html=0;" parent="0I3qsg0Ha3ZCSfRr8cA--26" vertex="1">
          <mxGeometry y="52" width="100" height="26" as="geometry" />
        </mxCell>
        <mxCell id="0I3qsg0Ha3ZCSfRr8cA--29" value="price" style="text;align=left;verticalAlign=top;spacingLeft=4;spacingRight=4;overflow=hidden;rotatable=0;points=[[0,0.5],[1,0.5]];portConstraint=eastwest;rounded=0;shadow=0;html=0;" parent="0I3qsg0Ha3ZCSfRr8cA--26" vertex="1">
          <mxGeometry y="78" width="100" height="26" as="geometry" />
        </mxCell>
        <mxCell id="0I3qsg0Ha3ZCSfRr8cA--44" style="edgeStyle=orthogonalEdgeStyle;rounded=0;orthogonalLoop=1;jettySize=auto;html=1;exitX=0.5;exitY=0;exitDx=0;exitDy=0;" parent="WIyWlLk6GJQsqaUBKTNV-1" source="0I3qsg0Ha3ZCSfRr8cA--30" target="0I3qsg0Ha3ZCSfRr8cA--12" edge="1">
          <mxGeometry relative="1" as="geometry">
            <Array as="points">
              <mxPoint x="540" y="980" />
              <mxPoint x="420" y="980" />
            </Array>
          </mxGeometry>
        </mxCell>
        <mxCell id="0I3qsg0Ha3ZCSfRr8cA--30" value="Nacho" style="swimlane;fontStyle=2;align=center;verticalAlign=top;childLayout=stackLayout;horizontal=1;startSize=26;horizontalStack=0;resizeParent=1;resizeLast=0;collapsible=1;marginBottom=0;rounded=0;shadow=0;strokeWidth=1;" parent="WIyWlLk6GJQsqaUBKTNV-1" vertex="1">
          <mxGeometry x="480" y="1009" width="120" height="160" as="geometry">
            <mxRectangle x="220" y="120" width="160" height="26" as="alternateBounds" />
          </mxGeometry>
        </mxCell>
        <mxCell id="0I3qsg0Ha3ZCSfRr8cA--31" value="name" style="text;align=left;verticalAlign=top;spacingLeft=4;spacingRight=4;overflow=hidden;rotatable=0;points=[[0,0.5],[1,0.5]];portConstraint=eastwest;" parent="0I3qsg0Ha3ZCSfRr8cA--30" vertex="1">
          <mxGeometry y="26" width="120" height="26" as="geometry" />
        </mxCell>
        <mxCell id="0I3qsg0Ha3ZCSfRr8cA--32" value="ingredients" style="text;align=left;verticalAlign=top;spacingLeft=4;spacingRight=4;overflow=hidden;rotatable=0;points=[[0,0.5],[1,0.5]];portConstraint=eastwest;rounded=0;shadow=0;html=0;" parent="0I3qsg0Ha3ZCSfRr8cA--30" vertex="1">
          <mxGeometry y="52" width="120" height="26" as="geometry" />
        </mxCell>
        <mxCell id="0I3qsg0Ha3ZCSfRr8cA--33" value="price" style="text;align=left;verticalAlign=top;spacingLeft=4;spacingRight=4;overflow=hidden;rotatable=0;points=[[0,0.5],[1,0.5]];portConstraint=eastwest;rounded=0;shadow=0;html=0;" parent="0I3qsg0Ha3ZCSfRr8cA--30" vertex="1">
          <mxGeometry y="78" width="120" height="26" as="geometry" />
        </mxCell>
        <mxCell id="0I3qsg0Ha3ZCSfRr8cA--35" value="size" style="text;align=left;verticalAlign=top;spacingLeft=4;spacingRight=4;overflow=hidden;rotatable=0;points=[[0,0.5],[1,0.5]];portConstraint=eastwest;rounded=0;shadow=0;html=0;" parent="0I3qsg0Ha3ZCSfRr8cA--30" vertex="1">
          <mxGeometry y="104" width="120" height="26" as="geometry" />
        </mxCell>
        <mxCell id="0I3qsg0Ha3ZCSfRr8cA--36" value="servingCapacity" style="text;align=left;verticalAlign=top;spacingLeft=4;spacingRight=4;overflow=hidden;rotatable=0;points=[[0,0.5],[1,0.5]];portConstraint=eastwest;rounded=0;shadow=0;html=0;" parent="0I3qsg0Ha3ZCSfRr8cA--30" vertex="1">
          <mxGeometry y="130" width="120" height="26" as="geometry" />
        </mxCell>
        <mxCell id="0I3qsg0Ha3ZCSfRr8cA--45" value="Menu" style="swimlane;fontStyle=2;align=center;verticalAlign=top;childLayout=stackLayout;horizontal=1;startSize=26;horizontalStack=0;resizeParent=1;resizeLast=0;collapsible=1;marginBottom=0;rounded=0;shadow=0;strokeWidth=1;" parent="WIyWlLk6GJQsqaUBKTNV-1" vertex="1">
          <mxGeometry x="575" y="845" width="100" height="85" as="geometry">
            <mxRectangle x="220" y="120" width="160" height="26" as="alternateBounds" />
          </mxGeometry>
        </mxCell>
        <mxCell id="0I3qsg0Ha3ZCSfRr8cA--46" value="foods" style="text;align=left;verticalAlign=top;spacingLeft=4;spacingRight=4;overflow=hidden;rotatable=0;points=[[0,0.5],[1,0.5]];portConstraint=eastwest;rounded=0;shadow=0;html=0;" parent="0I3qsg0Ha3ZCSfRr8cA--45" vertex="1">
          <mxGeometry y="26" width="100" height="26" as="geometry" />
        </mxCell>
        <mxCell id="osclPZG7CTdRH2gxLN_U-1" value="sauces" style="text;align=left;verticalAlign=top;spacingLeft=4;spacingRight=4;overflow=hidden;rotatable=0;points=[[0,0.5],[1,0.5]];portConstraint=eastwest;rounded=0;shadow=0;html=0;" vertex="1" parent="0I3qsg0Ha3ZCSfRr8cA--45">
          <mxGeometry y="52" width="100" height="26" as="geometry" />
        </mxCell>
        <mxCell id="0I3qsg0Ha3ZCSfRr8cA--52" value="Order" style="swimlane;fontStyle=2;align=center;verticalAlign=top;childLayout=stackLayout;horizontal=1;startSize=26;horizontalStack=0;resizeParent=1;resizeLast=0;collapsible=1;marginBottom=0;rounded=0;shadow=0;strokeWidth=1;" parent="WIyWlLk6GJQsqaUBKTNV-1" vertex="1">
          <mxGeometry x="370" y="470" width="100" height="160" as="geometry">
            <mxRectangle x="220" y="120" width="160" height="26" as="alternateBounds" />
          </mxGeometry>
        </mxCell>
        <mxCell id="0I3qsg0Ha3ZCSfRr8cA--53" value="items" style="text;align=left;verticalAlign=top;spacingLeft=4;spacingRight=4;overflow=hidden;rotatable=0;points=[[0,0.5],[1,0.5]];portConstraint=eastwest;rounded=0;shadow=0;html=0;" parent="0I3qsg0Ha3ZCSfRr8cA--52" vertex="1">
          <mxGeometry y="26" width="100" height="26" as="geometry" />
        </mxCell>
        <mxCell id="0I3qsg0Ha3ZCSfRr8cA--54" value="total" style="text;align=left;verticalAlign=top;spacingLeft=4;spacingRight=4;overflow=hidden;rotatable=0;points=[[0,0.5],[1,0.5]];portConstraint=eastwest;" parent="0I3qsg0Ha3ZCSfRr8cA--52" vertex="1">
          <mxGeometry y="52" width="100" height="26" as="geometry" />
        </mxCell>
        <mxCell id="0I3qsg0Ha3ZCSfRr8cA--56" value="created_at" style="text;align=left;verticalAlign=top;spacingLeft=4;spacingRight=4;overflow=hidden;rotatable=0;points=[[0,0.5],[1,0.5]];portConstraint=eastwest;rounded=0;shadow=0;html=0;" parent="0I3qsg0Ha3ZCSfRr8cA--52" vertex="1">
          <mxGeometry y="78" width="100" height="26" as="geometry" />
        </mxCell>
        <mxCell id="0I3qsg0Ha3ZCSfRr8cA--66" value="status" style="text;align=left;verticalAlign=top;spacingLeft=4;spacingRight=4;overflow=hidden;rotatable=0;points=[[0,0.5],[1,0.5]];portConstraint=eastwest;rounded=0;shadow=0;html=0;" parent="0I3qsg0Ha3ZCSfRr8cA--52" vertex="1">
          <mxGeometry y="104" width="100" height="26" as="geometry" />
        </mxCell>
        <mxCell id="osclPZG7CTdRH2gxLN_U-8" value="client" style="text;align=left;verticalAlign=top;spacingLeft=4;spacingRight=4;overflow=hidden;rotatable=0;points=[[0,0.5],[1,0.5]];portConstraint=eastwest;rounded=0;shadow=0;html=0;" vertex="1" parent="0I3qsg0Ha3ZCSfRr8cA--52">
          <mxGeometry y="130" width="100" height="26" as="geometry" />
        </mxCell>
        <mxCell id="0I3qsg0Ha3ZCSfRr8cA--65" style="edgeStyle=orthogonalEdgeStyle;rounded=0;orthogonalLoop=1;jettySize=auto;html=1;" parent="WIyWlLk6GJQsqaUBKTNV-1" source="0I3qsg0Ha3ZCSfRr8cA--58" target="0I3qsg0Ha3ZCSfRr8cA--52" edge="1">
          <mxGeometry relative="1" as="geometry" />
        </mxCell>
        <mxCell id="0I3qsg0Ha3ZCSfRr8cA--58" value="OrderItem" style="swimlane;fontStyle=2;align=center;verticalAlign=top;childLayout=stackLayout;horizontal=1;startSize=26;horizontalStack=0;resizeParent=1;resizeLast=0;collapsible=1;marginBottom=0;rounded=0;shadow=0;strokeWidth=1;" parent="WIyWlLk6GJQsqaUBKTNV-1" vertex="1">
          <mxGeometry x="370" y="655" width="100" height="140" as="geometry">
            <mxRectangle x="220" y="120" width="160" height="26" as="alternateBounds" />
          </mxGeometry>
        </mxCell>
        <mxCell id="0I3qsg0Ha3ZCSfRr8cA--59" value="food" style="text;align=left;verticalAlign=top;spacingLeft=4;spacingRight=4;overflow=hidden;rotatable=0;points=[[0,0.5],[1,0.5]];portConstraint=eastwest;rounded=0;shadow=0;html=0;" parent="0I3qsg0Ha3ZCSfRr8cA--58" vertex="1">
          <mxGeometry y="26" width="100" height="26" as="geometry" />
        </mxCell>
        <mxCell id="0I3qsg0Ha3ZCSfRr8cA--60" value="sauce" style="text;align=left;verticalAlign=top;spacingLeft=4;spacingRight=4;overflow=hidden;rotatable=0;points=[[0,0.5],[1,0.5]];portConstraint=eastwest;" parent="0I3qsg0Ha3ZCSfRr8cA--58" vertex="1">
          <mxGeometry y="52" width="100" height="26" as="geometry" />
        </mxCell>
        <mxCell id="0I3qsg0Ha3ZCSfRr8cA--61" value="price" style="text;align=left;verticalAlign=top;spacingLeft=4;spacingRight=4;overflow=hidden;rotatable=0;points=[[0,0.5],[1,0.5]];portConstraint=eastwest;rounded=0;shadow=0;html=0;" parent="0I3qsg0Ha3ZCSfRr8cA--58" vertex="1">
          <mxGeometry y="78" width="100" height="26" as="geometry" />
        </mxCell>
        <mxCell id="0I3qsg0Ha3ZCSfRr8cA--62" value="note" style="text;align=left;verticalAlign=top;spacingLeft=4;spacingRight=4;overflow=hidden;rotatable=0;points=[[0,0.5],[1,0.5]];portConstraint=eastwest;rounded=0;shadow=0;html=0;" parent="0I3qsg0Ha3ZCSfRr8cA--58" vertex="1">
          <mxGeometry y="104" width="100" height="26" as="geometry" />
        </mxCell>
        <mxCell id="osclPZG7CTdRH2gxLN_U-9" style="edgeStyle=orthogonalEdgeStyle;rounded=0;orthogonalLoop=1;jettySize=auto;html=1;" edge="1" parent="WIyWlLk6GJQsqaUBKTNV-1" source="osclPZG7CTdRH2gxLN_U-2" target="0I3qsg0Ha3ZCSfRr8cA--52">
          <mxGeometry relative="1" as="geometry" />
        </mxCell>
        <mxCell id="osclPZG7CTdRH2gxLN_U-2" value="Client" style="swimlane;fontStyle=2;align=center;verticalAlign=top;childLayout=stackLayout;horizontal=1;startSize=26;horizontalStack=0;resizeParent=1;resizeLast=0;collapsible=1;marginBottom=0;rounded=0;shadow=0;strokeWidth=1;" vertex="1" parent="WIyWlLk6GJQsqaUBKTNV-1">
          <mxGeometry x="580" y="450" width="100" height="144" as="geometry">
            <mxRectangle x="220" y="120" width="160" height="26" as="alternateBounds" />
          </mxGeometry>
        </mxCell>
        <mxCell id="osclPZG7CTdRH2gxLN_U-3" value="nome" style="text;align=left;verticalAlign=top;spacingLeft=4;spacingRight=4;overflow=hidden;rotatable=0;points=[[0,0.5],[1,0.5]];portConstraint=eastwest;rounded=0;shadow=0;html=0;" vertex="1" parent="osclPZG7CTdRH2gxLN_U-2">
          <mxGeometry y="26" width="100" height="26" as="geometry" />
        </mxCell>
        <mxCell id="osclPZG7CTdRH2gxLN_U-4" value="telefone" style="text;align=left;verticalAlign=top;spacingLeft=4;spacingRight=4;overflow=hidden;rotatable=0;points=[[0,0.5],[1,0.5]];portConstraint=eastwest;" vertex="1" parent="osclPZG7CTdRH2gxLN_U-2">
          <mxGeometry y="52" width="100" height="26" as="geometry" />
        </mxCell>
        <mxCell id="osclPZG7CTdRH2gxLN_U-5" value="cpf" style="text;align=left;verticalAlign=top;spacingLeft=4;spacingRight=4;overflow=hidden;rotatable=0;points=[[0,0.5],[1,0.5]];portConstraint=eastwest;rounded=0;shadow=0;html=0;" vertex="1" parent="osclPZG7CTdRH2gxLN_U-2">
          <mxGeometry y="78" width="100" height="26" as="geometry" />
        </mxCell>
        <mxCell id="osclPZG7CTdRH2gxLN_U-7" value="endereco" style="text;align=left;verticalAlign=top;spacingLeft=4;spacingRight=4;overflow=hidden;rotatable=0;points=[[0,0.5],[1,0.5]];portConstraint=eastwest;rounded=0;shadow=0;html=0;" vertex="1" parent="osclPZG7CTdRH2gxLN_U-2">
          <mxGeometry y="104" width="100" height="26" as="geometry" />
        </mxCell>
      </root>
    </mxGraphModel>
  </diagram>
</mxfile>
